<?xml version="1.0" encoding="utf-8"?>
<!-- Generator: Adobe Illustrator 25.2.3, SVG Export Plug-In . SVG Version: 6.00 Build 0)  -->
<svg version="1.1"
	 id="svg8" xmlns:cc="http://creativecommons.org/ns#" xmlns:dc="http://purl.org/dc/elements/1.1/" xmlns:inkscape="http://www.inkscape.org/namespaces/inkscape" xmlns:rdf="http://www.w3.org/1999/02/22-rdf-syntax-ns#" xmlns:sodipodi="http://sodipodi.sourceforge.net/DTD/sodipodi-0.dtd" xmlns:svg="http://www.w3.org/2000/svg"
	 xmlns="http://www.w3.org/2000/svg" xmlns:xlink="http://www.w3.org/1999/xlink" x="0px" y="0px" viewBox="0 0 595.3 841.9"
	 style="enable-background:new 0 0 595.3 841.9;" xml:space="preserve">
<sodipodi:namedview  bordercolor="#666666" borderopacity="1.0" id="base" inkscape:current-layer="layer1" inkscape:cx="400" inkscape:cy="560" inkscape:document-rotation="0" inkscape:document-units="mm" inkscape:pageopacity="0.0" inkscape:pageshadow="2" inkscape:window-height="1040" inkscape:window-maximized="0" inkscape:window-width="1267" inkscape:window-x="182" inkscape:window-y="0" inkscape:zoom="0.35" pagecolor="#ffffff" showgrid="false">
	</sodipodi:namedview>
<path id="path2" d="M296,125.1c21-1.4,42.6-1.1,62.8,5.8c6.5,2.4,13.7,5.6,16.9,12.2c2.2,4.2,1.1,9.4-1.8,12.9
	c-3.1,3.8-7.3,6.5-11.5,8.9c-13.9,7.2-29.7,9.2-45,10.5c-13.5,0.3-27.1,0.4-40.5-1.6c-8.8-1.1-17.6-3.2-25.6-7.3
	c-4.2-2.2-7.9-5.4-9.9-9.8c-2.2-5.1-1.2-11.2,2.2-15.5c3.8-5,9.7-7.8,15.5-9.9C270.9,127.2,283.5,126.3,296,125.1 M285.4,131.6
	c-8.9,1-18,3.1-25.5,8.2c-2.8,2.2-6,4.8-6.3,8.6c-0.2,3.2,2.5,5.4,4.8,7c5,3.1,10.7,4.6,16.3,6.1c9.6,2.3,19.3,3.7,29.1,4.4
	c11.4,0.3,22.9-0.3,34.1-2.3c6.8-1.3,13.6-3.1,19.5-6.7c3.1-2.1,5.9-5.4,5.8-9.4c0-4.1-3-7.6-6.5-9.4c-9.4-4.8-20.1-5.8-30.5-6.6
	C312.7,131.1,299,130.1,285.4,131.6L285.4,131.6z"/>
<path id="path4" d="M202.3,157.9c2.2-1,5-0.6,6.9,1c4.8,3.9,8,9.4,10.8,14.8c2.3,4.4,4.6,8.9,5.9,13.7c0.6,2.3,2.2,5.2,5.1,4.6
	c18.4-2.5,37-4.9,55.6-5.5c16.2-0.7,32.5,0,48.7,0.4c11.5,0.6,23.1,1.9,34.2,5.2c6.5,1.7,12.8,4.4,18.4,8.1
	c4.8-12.7,10-25.9,20.2-35.2c2.3-2.1,5.5-4.4,8.7-3c3.3,2.2,4,6.4,4.7,10c2.3,16.7-0.5,33.6,1.4,50.3c2.6,22,3.1,44.1,3.8,66.2
	c18.6-5,36.2-13,53-22.4c0.4,0.8,0.8,1.6,1.2,2.3c-5.2,3.5-10.9,6.3-16.4,9.2c-6.5,3.6-13.8,5.6-20.5,8.7c-6,2.8-12.9,4.8-17.5,9.9
	c15.9-1.1,31.5-4.3,46.9-8.1c2-0.5,4-0.9,6.1-1.1c-0.1,0.4-0.2,1.2-0.3,1.6c-7,1.6-13.9,3.9-21,5.2c-7.2,1.4-14.3,2.7-21.3,5
	c-3.8,1.4-8,2.7-10.2,6.4c19.5,0.8,39.1,0.5,58.6-0.1c0,0.4,0,1.2,0,1.7c-9.5,0.1-19,1.5-28.5,2c-8.9,0.9-17.9,1.1-26.8,2.3
	c-2.9,0.4-2.4,3.9-2.6,6c0.4,24.3,1.8,48.5,3.6,72.7c3.1,42.7,6.9,85.3,10.2,128c0.7,13.3,1.4,26.6,0,39.9
	c13.4,0,26.9,3.7,37.6,11.9c10.1,7.4,17.3,18.5,20.5,30.6c3,10.5,3.4,21.9,0,32.3c-4.3,14.1-14.2,25.7-25.4,34.8
	c-12.7,10.2-27.2,18-42.5,23.6c-30.1,11.4-61.8,17.9-93.6,22.1c-24.2,3.4-48.6,4.7-73,4.4c-10.9-0.4-22.3-1.8-31.7-7.7
	c-6.8-4.4-11.9-11.7-12.7-19.9c-0.4-5.5,2.2-11.3,7-14.1c6.4-4,14.4-4.1,21.6-3.3c13.7,1.8,26.3,8.6,40.2,9.9
	c14.1,1.2,28.3-0.3,42.4-2c17.3-2.5,34.4-6.2,51.5-9.7c18.8-4,37.5-8.7,55-16.8c11.1-5.3,22.7-11.4,29.7-22
	c6.8-9.8,8.7-22.7,5.2-34.1c-1.8-6.9-7.4-12.6-14.2-14.8c-7-2.3-14.5-2.4-21.8-2.3c-2.1,3.4-3.9,7-6.5,10.1
	c-4.7,3.7-10.7,5.4-16.3,7c-15.5,4.5-31.6,6.2-47.6,8.1c-28.8,3.3-57.7,4-86.7,3.6c-25.8,0.1-51.8-1.1-76.9-7.7
	c-8.2-2.2-16.5-6-21.3-13.3c-5.3-8.2-6.4-18.2-6.9-27.7c-1.7-29.4,4.1-58.5,5.6-87.8c0.8-21.3,2.6-42.5,4.1-63.7
	c1.8-26.7,0.9-53.6,2-80.3c0.4-5.7,1.3-11.5,0.5-17.2c-0.3-1.7-0.8-4.1-2.9-4.4c-16.1-3.3-32.6-4.6-48.8-7.4
	c-14.2-2.7-28.7-6.1-41.1-13.9c-0.1-0.4-0.3-1.1-0.4-1.5c2.7,0.5,5.2,1.5,7.8,2.4c27.8,8.9,57,11.4,85.7,15.7
	c-1.9-1.8-4.4-2.8-6.7-3.9c-6-2.7-12.4-4.6-18.5-6.9c-6.3-2.4-12.8-3.9-19.1-6.4c-15.4-6.3-30.9-12.8-44.9-21.9
	c-0.1-0.4-0.4-1.1-0.5-1.4c2.4,0.4,4.4,1.7,6.6,2.7c24.3,11.7,50.2,19.4,75.8,27.7c2.4,0.7,4.8,1.6,7.4,2c-1.3-2.7-3.8-4.5-6.2-6.1
	c-10-6.7-21-11.5-31.6-17.2c-12.2-7.3-25-14-35.4-23.8c-0.8-0.7-1.3-1.6-1.6-2.6c0.5,0.2,1.5,0.5,2.1,0.6c22.4,17,48,29.2,73.3,41.4
	c0.6-18.4,2.5-36.7,5.6-54.8c1.8-10.4,3.9-20.7,4.1-31.3c0.2-10.4-2.1-20.9-0.6-31.3C197.2,165.3,198.5,160.5,202.3,157.9
	 M253.9,225.7c-11.6,0.8-23.3,7.6-27.9,18.6c-4.9,12.1-3.3,27.6,6.4,36.9c12.8,12.2,34.9,12.4,48.1,0.8c6.9-5.9,10-15.2,10-24.1
	c-0.1-8-2.6-16.3-8.3-22.1C275.1,228.3,264.2,224.7,253.9,225.7 M346.7,225.6c-9.1,0.9-18.1,5.2-23.6,12.6
	c-5.7,7.4-7.1,17.4-5.5,26.4c1.1,7.3,5.1,14.1,11,18.6c14.8,11.5,39.2,9.2,50.2-6.5c8.3-12.6,7.2-31.3-3.8-42
	C367.5,227.7,356.8,224.6,346.7,225.6 M301.8,286.8c-2,0.6-3.6,2.6-3.1,4.7c0.5,2.7,2.8,5.7,5.8,5.2c4.1,0.3,7.9-4.3,6.1-8.2
	C308.7,285.9,304.6,285.9,301.8,286.8 M293,320.2c4.9-1.4,9.3-4.2,12.2-8.3c3.3,4.3,8.6,6.2,13.8,7.4c-6.4-3.5-12.1-9-13.5-16.4
	C304,310.1,298.5,315.6,293,320.2 M322.3,397.1c-4.1,6.2-4,14.1-2.4,21.1c2.9,11.7,9.2,22.1,15.4,32.4c2,3.2,3.5,6.8,6.3,9.3
	c1.6,1.6,4.4,1.6,6,0.1c8.9-6.7,16.8-14.6,24.1-22.9c6.1-7.2,12.6-15,13.9-24.7c1.2-7.9-7.2-15.1-14.8-13c-8.3,2.3-14.3,9-19.6,15.4
	c-2.2-4.9-5.4-9.3-9-13.2c-3.3-3.4-7.1-7-11.9-7.9C327.4,392.8,323.9,394.4,322.3,397.1 M210.8,429.7c4.1,12.1,7.8,24.5,13.4,36
	c4.5,9.6,10.5,18.7,18.6,25.6c4.6,4.5,11.2,6.5,17.5,6.8c4.9,0.1,10.5-1.1,13.7-5.3c3.2-4.4,2.7-10.4,0.9-15.2
	c-2.9-8.7-9.3-15.5-14.1-23c-4.5-7.2-7.6-15.2-9.4-23.5c1.5,11.9,6.7,23.1,13.6,32.8c3.9,6.1,8.2,12.4,9.2,19.7
	c0.7,3.9-1.1,8.2-4.6,10.1c-4.8,2.8-10.6,3.1-15.9,2c-9-2.5-15.5-9.9-20.5-17.3c-5.2-7.9-9.4-16.5-12.9-25.3
	C216.7,445.5,214.6,437.2,210.8,429.7 M365.1,458.7c-7.6,3.4-16.3,4.1-23.1,9.1c-2.8,2.1-4.4,5.6-3.9,9.1c0.8,5,3.2,10,7.4,13.1
	c3.9,3.1,9,4.1,13.9,4.1c13.7-0.6,26.6-7,37.5-14.9c5.5-4.4,11.2-9.2,14.2-15.8c-3.9,3.6-7.4,7.6-11.6,10.9
	c-10.4,8.2-22.3,15.4-35.6,17.1c-5.3,0.8-11.1,0.6-15.8-2.2c-3.9-2.5-6.3-6.9-7-11.4c-0.5-3.5,1.6-6.9,4.4-8.8
	c5.5-3.9,12.4-5,18.4-7.8c12.2-5.4,20.2-16.9,26.3-28.3C382.7,442.2,376,453.1,365.1,458.7 M277.1,567.6c7.3,0.4,15-0.2,21.9,2.5
	c3,1,5.4,3.2,8.5,3.8c3.1-0.6,5.4-3.3,8.6-3.9c6.5-1.1,12.9,1,19.2,1.9c-5.3-2.4-10.7-4.9-16.6-5.7c-4.1-0.5-7,2.9-9.8,5.4
	c-4.3-1.7-8.4-3.9-12.8-5.3C289.9,564.8,283.1,565.3,277.1,567.6L277.1,567.6z"/>
<path id="path6" d="M259.8,232c4-1.4,9.1-0.1,11.4,3.7c2.7,4,2.2,9.8-1.2,13.2c-4,4.4-12,3.6-15.1-1.5
	C251.4,242.2,253.6,233.9,259.8,232z"/>
<path id="path8" d="M333.4,232.2c5-2.6,12-0.2,13.9,5.2c1.1,3.8,0.9,8.6-2.2,11.4c-4.3,4.8-13.1,3.5-15.8-2.3
	C327,241.7,328.1,234.5,333.4,232.2L333.4,232.2z"/>
<path id="path10" d="M140.7,327.4c2.2-2.7,5.9-3.6,9.3-3.4c12.4,0.4,23.8,6.2,34.2,12.5c-0.7,20.8-0.1,41.7-1.6,62.5
	c-8.1,0.2-16.2,3-24.3,1.6c-7.9-1.6-15.5-5.8-19.9-12.6c-3.2-5-3.2-11.9,0.5-16.6c1.7-2.1,3.5-4.1,5.8-5.6c3.9-2.3,8.4-3.8,11.8-6.9
	c1-0.7,0.8-2.1,1-3.2c-6.2-5.9-14.5-10.2-18-18.4C138.4,334.1,138.2,330,140.7,327.4L140.7,327.4z"/>
<path id="path12" d="M450.4,334.5c5.5-1.3,11.6-1.8,16.8,0.8c4.5,2.4,5.2,8.5,3.2,12.7c-2.9,6.7-9.6,10.6-13.5,16.6
	c3.8,4.3,10.7,2.4,15.2,5.6c3,2,5.8,4.7,6.7,8.3c1.2,4.5-0.7,9.2-3.2,13c-3.9,5.6-9.1,10.1-14.8,13.7c-6.8,4.6-15.3,6.9-23.5,6.4
	c-2.1-0.1-3.1-2.4-3.2-4.2c-0.9-12.2-2-24.5-2.8-36.7c-0.7-8.5-1.4-16.9-1.4-25.5C435.6,339.9,442.9,336.4,450.4,334.5L450.4,334.5z
	"/>
</svg>
