<?xml version="1.0" encoding="utf-8"?>
<!-- Generator: Adobe Illustrator 23.0.1, SVG Export Plug-In . SVG Version: 6.00 Build 0)  -->
<svg version="1.1" id="Layer_1" xmlns="http://www.w3.org/2000/svg" xmlns:xlink="http://www.w3.org/1999/xlink" x="0px" y="0px"
	 viewBox="0 0 864 864" style="enable-background:new 0 0 864 864;" xml:space="preserve">
<style type="text/css">
	.st0{fill:#FFFFFF;}
</style>
<path d="M544.76,213.74c14.4-9.34,22.35-22.28,27.63-37.32c0.16-0.46,0.65-0.73,1.12-0.6l0.64,0.17c0.37,0.1,0.65,0.41,0.7,0.8
	c0.16,1.42,0.55,2.91,0.12,4.12c-5.7,16.06-15.16,29.14-30.24,37.75c-1.45,0.83-2.59,2.2-3.81,3.42c-0.34,0.34-0.36,0.88-0.06,1.25
	l0.01,0.01c0.29,0.37,0.81,0.47,1.22,0.23c3.12-1.85,6.14-3.93,9.44-5.35c15.6-6.69,31.27-13.21,46.98-19.62
	c0.91-0.37,2.06-0.17,3.22,0.04c0.71,0.13,1.02,0.98,0.55,1.54c-0.78,0.93-1.57,1.85-2.57,2.26c-12.91,5.35-25.92,10.47-38.87,15.74
	c-1.43,0.58-2.8,1.31-4.18,2.06c-0.77,0.42-0.6,1.58,0.26,1.76c5.17,1.07,10.13,2.12,15.11,3.05c1.05,0.19,2.3-0.11,3.33-0.52
	c11.82-4.71,24.14-6.26,36.75-5.65c1.2,0.06,1.9,0.14,3.57,1.17c0.68,0.42,0.73,1.4,0,1.7c-0.66,0.27-2.28,1.06-3.42,1.05
	c-10.92-0.08-21.62,0.94-32.23,4.52c-0.64,0.22-0.84,1.04-0.38,1.54c3.1,3.38,6.02,6.51,8.85,9.71c3.41,3.85,4.51,8.41,4.02,13.47
	c-0.66,6.8-1.61,13.6-1.71,20.41c-0.08,5.93,0.54,11.91,1.4,17.79c1.34,9.13-0.24,17.59-4.95,25.43c-2.22,3.7-5.43,6.15-9.35,7.41
	c-0.76,0.24-1.45-0.54-1.14-1.27c0.91-2.16,1.81-4.31,2.76-6.56c0.25-0.59-0.15-1.25-0.79-1.31c-4.16-0.38-7.96-0.73-12.18-1.12
	c-0.52-0.05-0.98,0.33-1.03,0.85c-0.16,1.64-0.34,3.38-0.56,5.66c-0.08,0.85-1.17,1.17-1.69,0.49c-2.19-2.85-4.18-5.08-5.16-7.68
	c-1.31-3.5-3.49-4.06-6.01-2.84c-1.42,0.69-2.59,3.09-2.75,4.82c-0.13,1.44,0.44,2.95,1.01,4.6c0.25,0.74-0.46,1.45-1.21,1.2
	c-0.48-0.16-0.94-0.33-1.39-0.53c-6.02-2.74-10.18-8.84-18.06-8.66c-2.29,0.05-5.26-4.72-6.89-7.82c-2.06-3.93-3.36-8.33-4.45-12.67
	c-1.05-4.18-3.56-6.24-7.58-6.81c-1.81-0.26-3.64-0.47-5.47-0.47c-47.33-0.03-94.66-0.03-141.99-0.03c-0.61,0-1.23,0.07-1.97,0.14
	c-0.45,0.04-0.81,0.4-0.85,0.85c-0.42,4.23-0.73,8.41-1.34,12.54c-0.85,5.67-2.52,10.92-7.07,15.02c-1.57,1.41-1.85,4.18-2.94,6.2
	c-0.91,1.68-1.99,3.27-3.07,4.9c-0.39,0.6-1.29,0.56-1.62-0.08c-1.59-3.01-2.7-6.11-4.87-7.35c-2.72-1.56-6.56-1.17-10.09-1.47
	c-0.38-0.03-0.75,0.16-0.92,0.5l-3.55,6.93c-0.31,0.61-1.15,0.7-1.58,0.17c-2.95-3.73-3.78-8.99-9.57-9.31
	c-0.62-0.03-1.1,0.54-0.97,1.15c0.42,1.96,0.81,3.76,1.26,5.86c0.13,0.6-0.34,1.17-0.94,1.15c-6.51-0.27-11.69-3.03-15.67-7.92
	c-7.36-9.05-8.62-19.99-6.85-30.81c1.73-10.59,4.87-21.04,8.34-31.23c3.63-10.7,11.69-16.24,23.23-16.33
	c2.42-0.02,4.83-0.16,7.25-0.46c0.94-0.12,1.14-1.42,0.28-1.8c-5.05-2.25-10.32-3.16-15.92-2.76c-0.97,0.07-1.98-0.29-2.99-0.67
	c-0.7-0.27-0.41-0.92-0.23-1.64c0.37-1.51,2.03-1.52,3.13-1.65c8.59-1.08,16.47,1.45,24.01,5.34c1.24,0.64,2.47,1.3,3.7,1.96
	c0.35,0.19,0.79,0.13,1.08-0.14l0.14-0.12c0.37-0.33,0.41-0.89,0.1-1.28c-1.33-1.73-2.54-3.61-4.17-4.99
	c-9.12-7.71-18.44-15.18-27.51-22.93c-0.67-0.57-2.09-1.69-0.96-2.93c0.48-0.52,0.86-0.77,1.27-1c0.97-0.54,2.08,0.8,2.88,1.48
	c7.35,6.24,14.54,12.66,21.88,18.9c0.96,0.82,2.09,1.43,3.23,2.03c1.33-1.06,1.47-1.17,2.81-2.23c-0.54-2.07-1.08-4.15-1.72-6.19
	c-1.52-4.83-3.14-9.64-4.77-14.43c-0.68-1.99-1.21-4.11-2.29-5.89c-10.49-17.29-19.9-35.11-25.13-54.77
	c-1.61-6.04-2.43-12.48-2.39-18.72c0.09-11.45,8.99-19.07,20.28-17.26c6.15,0.99,12.36,3.01,17.98,5.72
	c14.03,6.78,27.76,14.2,41.86,21.51c0.36,0.19,0.79,0.12,1.08-0.16c8.81-8.46,19.02-14.75,30.76-18.45
	c12.82-4.04,25.89-4.68,39.01-2.04c3.64,0.73,5.19-0.39,7.17-3.19c12.69-17.93,25.42-35.83,38.59-53.41
	c4.92-6.57,6.42-6.13,11.3,0.78c11.78,16.68,16.57,35.93,19.35,55.65c1.94,13.83,2.24,27.88,3.74,41.78
	c0.56,5.21,2.29,10.33,3.75,15.42c3.42,11.85,7.35,23.62,5.27,36.23c-0.57,3.46-1.59,6.85-2.72,11.16
	C543.1,213.54,544.03,214.21,544.76,213.74z M491.57,79.92c0.24,0.36,0.22,0.84-0.07,1.16c-1.89,2.12-3.72,3.8-4.91,5.85
	c-3.54,6.08-7.05,12.2-9.99,18.58c-1.37,2.97-2.01,6.27-2.77,9.51c1.28,1.07,1.49,1.24,2.78,2.32c2.73-1.21,5.43-2.41,8.02-3.57
	c0.39-0.17,0.85-0.07,1.11,0.27c2.46,3.06,4.42,6.72,7.47,8.46c7.66,4.37,15.8,7.91,23.99,11.79c0.75,0.36,1.57-0.36,1.31-1.15
	c-0.09-0.25-0.18-0.49-0.3-0.73c-2.62-5.23-1.77-9.75,2.06-14.2c1.75-2.04,3.38-4.88,3.54-7.46c0.79-12.34,0.37-24.68-3.16-36.66
	c-1.95-6.63-4.96-12.72-10.76-17.02c-2.69-1.99-5.15-1.74-6.9,0.89c-2.62,3.93-4.93,8.07-7.32,12.11c-0.32,0.54-0.04,1.23,0.57,1.39
	l0.06,0.02c0.7,0.19,0.93,1.08,0.41,1.59C491.61,78.09,490.91,78.9,491.57,79.92z M342.19,168.41c0.35,0.36,0.92,0.37,1.29,0.04
	c4.86-4.24,9.28-8.14,13.75-11.98c4.59-3.94,9.22-7.81,14.05-11.89c0.35-0.3,0.43-0.8,0.21-1.19c-3.18-5.66-3.43-13.22-10.16-17.14
	c-4.1-2.39-7.88-5.36-12.09-7.52c-7.18-3.69-14.44-7.31-21.93-10.28c-9.03-3.58-16.13,1.16-15.59,10.89
	c0.33,5.95,2.1,12.24,4.82,17.56C322.97,149.5,333.16,159.25,342.19,168.41z M400.71,202.41c0.01-0.66-0.66-1.12-1.28-0.9
	c-6.7,2.42-9.14,7.14-7.3,14.46c2.12,8.42,8.91,13.71,17.79,12.74c4.97-0.55,9.8-2.42,14.86-3.86c0.52-0.15,1.06,0.17,1.18,0.7
	c0.09,0.4,0.19,0.85,0.3,1.33c0.21,0.94,1.56,1.01,1.83,0.09c2.4-8.28-2.34-17.47-11.41-22.86c-0.65-0.39-1.47,0.1-1.44,0.85
	c0.15,3.61,0.65,7.45-0.27,10.91c-1.06,4.03-3.4,8.19-6.37,11.06c-1.62,1.56-7.39-5.87-7.81-11.36
	C400.46,211.25,400.67,206.89,400.71,202.41z M471.44,260.93c-0.56,0.28-1.1,0.73-1.68,0.81c-2.58,0.36-6.03,1.79-7.58,0.66
	c-2.99-2.19-1.53-5.55,0.33-8.43c2.16-3.34,4.38-6.72,5.93-10.36c0.64-1.5,0.21-3.46,0.03-5.3c-0.05-0.51-0.5-0.88-1-0.84
	c-2.04,0.16-4.36,0-5.6,1.08c-3.95,3.46-7.98,5.08-13.16,3.68c-1.24-0.34-2.74-0.38-3.95-0.01c-1.79,0.54-3.48,1.38-5.19,2.16
	c-0.49,0.22-0.7,0.8-0.46,1.28c0.9,1.74,1.62,3.74,3.05,4.67c4.55,3,9.63,5.2,14.24,8.13c1.35,0.86,2.54,3.11,2.48,4.67
	c-0.05,1.18-2.04,2.92-3.45,3.28c-0.76,0.19-1.53,0.33-2.32,0.43c-1.14,0.15-1.11,1.82,0.04,1.88
	C460.33,269.11,467.48,266.32,471.44,260.93z M470.01,188.48c-5.5,8.96-4.64,24.04,0.97,29.14c0.67,0.61,1.75-0.04,1.54-0.93
	c-1.1-4.69,0.08-5.27,6.34-5.88c8.13-0.8,13.92-4.94,17.36-12.42c3.13-6.81-0.1-11.8-4.34-16.67c-2.81-3.23-3.6-3.6-7.4-1.39
	c-0.49,0.29-0.62,0.94-0.28,1.39c7.14,9.54,7.42,17.88,0.67,25.86c-0.32,0.38-0.89,0.44-1.29,0.15
	c-6.29-4.67-10.06-10.91-11.84-18.97C471.55,187.93,470.45,187.75,470.01,188.48z"/>
<path d="M404.1,635c26.39,0,51.99,0,78.23,0c-1.68,4.92-3.32,9.4-4.74,13.95c-6.69,21.42-10.39,43.29-11.44,65.76
	c-0.59,12.74-2.07,25.62-4.95,38.02c-4.76,20.46-17.01,36.27-35.55,46.09c-31.04,16.44-64.23,22.48-99.1,17.03
	c-12.26-1.92-23.74-6.62-31.13-17.16c-3.27-4.66-5.45-10.79-6.02-16.46c-0.94-9.36,5.48-15.43,14.91-15.44
	c11.43-0.01,20.75,5.42,29.4,12.24c1.82,1.44,3.71,2.95,5.07,4.8c6.28,8.53,15.05,9.22,24.28,7.58
	c33.35-5.94,57.46-37.92,53.25-71.4c-3.3-26.26-7.57-52.4-11.4-78.6C404.62,639.46,404.41,637.5,404.1,635z"/>
<path d="M375.19,622.29c13.91,10.08,20.37,31.36,14.26,46.64c-3.43,8.57-9.55,14.61-18.42,17.02c-16.07,4.36-32,3.74-47.35-3.22
	c-9.61-4.36-15.91-11.4-16.92-22.33c-0.45-4.8-1.13-9.62-1.03-14.42c0.19-8.59,4.4-14.58,12.29-18.41
	c7.42-3.61,14.48-7.94,21.59-11.89c0,1.31-0.46,3.78,0.12,5.97c0.67,2.52,1.88,6.4,3.56,6.81c2.55,0.63,6.63-0.36,8.39-2.23
	c2.97-3.14,4.62-7.52,7.25-12.11c1.81,4.44,3.46,8.77,5.36,12.99c1,2.21,1.04,5.49,5.04,4.96c3.61-0.48,4.5-2.94,5.04-5.88
	C374.61,624.91,374.9,623.66,375.19,622.29z"/>
<path d="M539.43,612.53c0.92,1.78,1.7,3.65,2.78,5.32c1.35,2.09,2.7,4.32,4.53,5.93c1.58,1.39,3.86,1.99,5.82,2.94
	c0.28-2.12,0.59-4.23,0.83-6.35c0.23-2.02-0.24-4.52,0.8-5.9c0.62-0.82,3.85-0.42,5.42,0.38c8.89,4.54,17.86,9.07,24.11,17.28
	c5.24,6.87,7.4,14.64,5.15,23.05c-6.77,25.35-20.64,32.5-45.46,28.56c-5.71-0.91-11.21-3.05-16.84-4.49
	c-10.19-2.61-15.81-10.19-19.8-18.98c-1.24-2.72-1.31-7.49,0.31-9.7c4.52-6.17,6.38-13.06,7.98-20.21c0.15-0.65,0.16-1.37,0.47-1.93
	c1.48-2.63,3.04-5.21,4.56-7.81c1.69,2.18,3.3,4.43,5.09,6.52c1,1.17,2.28,2.9,3.44,2.89c1.29,0,3.08-1.42,3.74-2.69
	c1.2-2.32,1.71-5,2.55-7.51c0.65-1.94,1.36-3.86,2.04-5.79C537.79,613.54,538.61,613.03,539.43,612.53z"/>
<path class="st0" d="M492.03,80.49c-1.3-1.53-1.3-1.53,5.89-8.58c-1.19-0.32-2.14-0.58-2.85-0.77c2.62-4.38,5.11-8.9,7.96-13.18
	c1.75-2.63,4.21-2.88,6.9-0.89c5.8,4.3,8.8,10.39,10.76,17.02c3.53,11.98,3.95,24.31,3.16,36.66c-0.17,2.58-1.79,5.43-3.54,7.46
	c-3.83,4.45-4.68,8.97-2.06,14.2c0.42,0.84,0.58,1.81,0.88,2.78c-8.82-4.24-17.63-7.98-25.87-12.69c-3.24-1.85-5.25-5.86-7.93-9.02
	c-3.34,1.49-6.9,3.07-10.45,4.64c-0.53-0.27-1.06-0.54-1.58-0.81c1.08-3.95,1.65-8.14,3.34-11.8c2.94-6.37,6.45-12.5,9.99-18.58
	C487.9,84.7,489.96,82.9,492.03,80.49z"/>
<path class="st0" d="M342.81,169.04c-9.18-9.35-19.69-19.25-26.28-32.14c-2.72-5.32-4.49-11.61-4.82-17.56
	c-0.54-9.73,6.56-14.47,15.59-10.89c7.49,2.97,14.75,6.59,21.93,10.28c4.21,2.16,7.99,5.13,12.09,7.52c7,4.08,6.99,12.1,10.56,17.82
	c-5.04,4.26-9.88,8.3-14.65,12.4C352.55,160.49,347.93,164.57,342.81,169.04z"/>
<path class="st0" d="M400.71,201.09c0,4.95-0.29,9.73,0.07,14.47c0.42,5.49,6.19,12.93,7.81,11.36c2.97-2.86,5.3-7.03,6.37-11.06
	c1.06-4,0.23-8.51,0.23-12.59c11.15,5.83,16.57,17.22,11.73,26.59c-0.51-2.3-0.91-4.08-1.18-5.29c-5.4,1.46-10.53,3.55-15.82,4.13
	c-8.87,0.98-15.67-4.31-17.79-12.74C390.18,208.21,393.04,203.36,400.71,201.09z"/>
<path class="st0" d="M471.44,260.93c-5.22,7.12-16.02,9.71-25.11,6.41c3.24-0.28,6.27-0.22,9.1-0.93c1.41-0.36,3.4-2.1,3.45-3.28
	c0.06-1.56-1.13-3.81-2.48-4.67c-4.61-2.93-9.68-5.13-14.24-8.13c-1.67-1.1-2.38-3.65-3.53-5.54c2.04-0.88,4.02-1.95,6.13-2.58
	c1.22-0.37,2.71-0.32,3.95,0.01c5.17,1.4,9.21-0.22,13.16-3.68c1.43-1.25,4.32-0.84,6.54-1.19c0.06,2.1,0.78,4.49,0.03,6.25
	c-1.55,3.64-3.77,7.01-5.93,10.36c-1.86,2.88-3.32,6.24-0.33,8.43c1.55,1.13,5-0.3,7.58-0.66
	C470.34,261.65,470.88,261.21,471.44,260.93z"/>
<path class="st0" d="M471.32,186.62c1.62,9.42,5.7,16.51,12.97,21.63c7.55-8.42,7.24-17.21-0.74-27.37c4.61-2.8,5.31-2.64,8.33,0.84
	c4.23,4.88,7.47,9.87,4.34,16.67c-3.44,7.48-9.23,11.63-17.36,12.42c-7.15,0.7-7.67,1.35-5.73,8.16
	C465.16,215.91,463.66,196.11,471.32,186.62z"/>
</svg>
